<?xml version="1.0" standalone="no"?>
<!DOCTYPE svg PUBLIC "-//W3C//DTD SVG 20010904//EN"
 "http://www.w3.org/TR/2001/REC-SVG-20010904/DTD/svg10.dtd">
<svg version="1.0" xmlns="http://www.w3.org/2000/svg"
 width="1280.000000pt" height="1280.000000pt" viewBox="0 0 1280.000000 1280.000000"
 preserveAspectRatio="xMidYMid meet">
<metadata>
Created by potrace 1.15, written by Peter Selinger 2001-2017
</metadata>
<g transform="translate(0.000000,1280.000000) scale(0.100000,-0.100000)"
fill="#868b7f" stroke="none">
<path d="M6397 12776 c-17 -13 -16 -17 13 -67 150 -253 303 -676 365 -1007 50
-265 73 -572 55 -734 -28 -249 -115 -490 -388 -1068 -68 -146 -133 -283 -143
-305 -17 -36 -19 -37 -14 -10 52 329 80 649 72 815 -8 147 -19 208 -67 356
-130 404 -362 796 -674 1136 -63 69 -121 128 -128 131 -7 2 -21 -2 -30 -11
-16 -14 -14 -18 26 -66 53 -62 178 -246 233 -341 159 -275 282 -585 347 -876
78 -347 56 -527 -155 -1278 -119 -423 -183 -692 -214 -899 -4 -24 -9 -42 -11
-40 -6 6 -63 287 -78 388 -33 211 -57 474 -86 925 -19 292 -32 461 -45 565
-29 224 -76 433 -128 562 -63 158 -239 430 -410 638 -104 125 -376 393 -502
494 -118 94 -354 256 -373 256 -6 0 -15 -7 -20 -16 -8 -14 8 -31 80 -91 385
-321 741 -805 936 -1274 47 -114 65 -173 89 -299 25 -130 24 -680 0 -1025 -10
-132 -20 -331 -24 -443 -3 -111 -9 -199 -13 -195 -4 4 -35 116 -69 248 -143
544 -229 780 -358 973 -106 159 -388 430 -623 599 -186 134 -453 279 -659 359
-71 27 -74 28 -87 9 -13 -18 -10 -22 43 -51 382 -213 714 -494 965 -819 257
-331 310 -501 423 -1340 53 -395 122 -781 160 -900 22 -69 -209 273 -342 505
-86 151 -119 214 -412 780 -324 625 -453 788 -826 1036 -364 243 -845 435
-1284 514 -146 26 -151 25 -151 -2 0 -21 13 -27 112 -56 603 -179 1293 -635
1549 -1024 100 -152 225 -425 343 -753 20 -55 69 -192 110 -305 41 -112 73
-206 72 -208 -2 -1 -30 35 -64 80 -207 286 -435 541 -577 646 -141 104 -451
243 -705 317 -276 80 -610 129 -840 123 -117 -3 -125 -4 -125 -23 0 -16 9 -21
45 -26 287 -43 430 -75 623 -140 226 -76 437 -174 632 -293 334 -205 439 -338
871 -1106 190 -338 329 -564 446 -720 l33 -45 -30 19 c-346 222 -558 390
-1115 881 -389 344 -651 529 -871 615 -84 34 -305 87 -469 114 -429 70 -928
56 -1323 -38 -68 -16 -71 -18 -62 -46 4 -14 12 -19 23 -16 9 3 94 10 187 15
174 11 433 2 604 -20 297 -37 623 -122 880 -229 270 -111 477 -295 996 -880
154 -173 313 -350 354 -392 40 -43 71 -78 68 -78 -3 0 -84 46 -179 101 -511
299 -700 391 -928 451 -107 28 -130 31 -341 35 -140 4 -271 1 -345 -6 -308
-31 -622 -106 -879 -211 -55 -23 -112 -46 -127 -52 -29 -10 -34 -23 -19 -47 7
-11 16 -11 57 2 233 76 495 116 804 124 240 6 386 -3 586 -37 311 -52 504
-158 1059 -581 347 -265 544 -406 681 -489 164 -100 163 -100 64 -84 -187 30
-401 79 -635 145 -150 43 -184 54 -570 179 -751 245 -1002 286 -1362 225 -349
-59 -685 -172 -1009 -339 -165 -85 -343 -195 -447 -274 -50 -38 -56 -46 -45
-60 7 -10 13 -18 14 -20 1 -2 25 11 54 28 331 195 838 357 1265 404 550 61
707 22 1611 -402 150 -70 271 -128 270 -129 -1 -1 -60 7 -131 17 -292 44 -410
54 -620 54 -232 -1 -273 -7 -459 -69 -303 -101 -605 -262 -876 -466 -123 -93
-337 -283 -363 -322 -14 -22 -14 -26 0 -40 14 -14 21 -11 74 33 82 68 294 207
418 274 259 139 524 240 792 300 348 78 519 57 1294 -159 444 -124 651 -173
883 -210 24 -4 42 -9 39 -11 -6 -7 -279 -62 -387 -78 -251 -37 -432 -54 -920
-86 -296 -19 -466 -32 -570 -45 -224 -29 -433 -76 -562 -128 -158 -63 -430
-239 -638 -410 -125 -104 -393 -376 -494 -502 -94 -118 -256 -354 -256 -373 0
-6 7 -15 16 -20 14 -8 32 9 93 82 268 323 674 642 1069 840 207 104 342 153
502 183 130 24 682 24 1025 0 132 -10 331 -20 443 -24 111 -3 199 -9 195 -13
-4 -4 -116 -35 -248 -69 -412 -108 -612 -173 -794 -257 -162 -76 -250 -142
-442 -333 -182 -183 -312 -344 -440 -546 -117 -186 -288 -547 -275 -581 6 -16
46 -19 46 -4 0 16 108 199 181 305 212 311 503 603 799 802 242 162 448 218
1160 313 430 58 811 125 935 165 31 10 -25 -35 -140 -114 -235 -161 -440 -277
-947 -537 -198 -102 -413 -215 -477 -251 -269 -152 -463 -297 -575 -429 -72
-84 -220 -300 -288 -419 -194 -342 -342 -745 -408 -1114 -26 -146 -25 -151 3
-151 20 0 26 13 55 112 179 602 636 1293 1024 1549 152 100 425 224 753 343
55 20 192 69 305 110 112 41 206 74 207 72 1 -1 -65 -53 -147 -115 -413 -310
-575 -481 -703 -736 -195 -392 -317 -903 -317 -1331 l0 -124 24 0 c22 0 25 5
31 63 21 186 94 495 161 674 132 356 317 678 488 848 150 149 304 251 841 555
414 234 606 353 765 471 24 19 40 27 35 19 -31 -52 -195 -295 -233 -345 -166
-219 -240 -308 -589 -707 -438 -501 -590 -712 -683 -949 -34 -84 -87 -305
-114 -469 -70 -429 -56 -928 38 -1323 16 -68 18 -71 46 -62 14 4 19 12 16 23
-3 9 -10 93 -15 186 -20 335 22 751 110 1076 54 200 142 434 205 547 101 181
327 426 679 738 320 283 437 388 522 469 46 43 83 76 83 73 0 -3 -46 -84 -101
-179 -299 -512 -394 -709 -454 -939 -24 -93 -28 -127 -32 -330 -12 -478 61
-845 263 -1336 17 -43 28 -50 53 -34 11 7 11 16 -2 57 -76 232 -116 493 -124
804 -8 316 21 593 84 790 54 170 190 398 410 690 375 498 457 607 529 715 44
66 100 153 124 193 23 40 46 74 49 77 4 2 2 -33 -6 -78 -46 -292 -130 -611
-289 -1097 -221 -678 -271 -884 -281 -1145 -5 -126 -2 -173 17 -290 23 -151
80 -383 129 -533 107 -324 310 -721 489 -955 38 -50 46 -56 60 -45 10 7 18 13
20 14 2 1 -11 25 -28 55 -122 206 -251 535 -324 825 -56 223 -82 393 -97 641
-23 396 39 604 423 1418 143 303 129 276 123 240 -52 -326 -80 -649 -72 -820
7 -142 23 -224 72 -368 142 -426 394 -837 718 -1171 85 -87 87 -89 107 -71 19
17 19 18 -24 69 -53 62 -178 246 -233 341 -260 449 -415 973 -383 1295 22 225
57 382 191 859 119 423 183 692 214 899 4 24 9 42 11 40 8 -9 64 -296 83 -428
30 -207 47 -392 71 -745 51 -781 87 -1029 183 -1267 63 -157 237 -427 407
-634 104 -126 376 -394 505 -498 116 -93 354 -256 373 -256 6 0 15 8 20 17 8
13 -5 28 -67 79 -166 134 -379 359 -538 572 -212 282 -420 676 -477 905 -51
202 -59 527 -26 1057 11 179 23 414 27 523 3 109 9 194 13 190 4 -4 35 -116
69 -248 142 -542 229 -779 358 -974 83 -125 368 -408 543 -538 225 -168 424
-284 652 -382 151 -65 164 -68 177 -43 10 18 4 23 -52 53 -336 174 -704 486
-951 805 -265 341 -317 501 -426 1315 -56 418 -131 843 -165 932 -42 107 233
-306 390 -588 43 -77 161 -301 261 -498 271 -527 400 -746 544 -915 173 -204
568 -460 954 -619 230 -95 493 -173 715 -213 146 -26 151 -25 151 3 0 20 -13
26 -117 56 -497 147 -1056 483 -1401 844 -181 190 -313 449 -517 1017 -36 102
-86 239 -110 305 -24 65 -43 121 -41 123 2 2 31 -35 65 -82 202 -280 434 -538
576 -644 337 -249 1066 -455 1560 -440 102 3 110 4 110 23 0 16 -9 21 -45 26
-285 43 -420 73 -617 138 -375 125 -743 329 -928 515 -149 150 -251 305 -555
841 -235 415 -351 604 -471 765 -39 52 -48 56 156 -81 255 -172 424 -308 880
-709 473 -416 714 -589 946 -680 84 -34 305 -87 469 -114 376 -61 772 -60
1150 5 127 21 228 44 236 52 13 12 -8 48 -24 43 -9 -3 -92 -10 -184 -16 -483
-30 -1039 64 -1487 250 -269 111 -479 297 -996 880 -154 173 -313 350 -354
393 -40 42 -71 77 -68 77 3 0 84 -46 179 -101 519 -304 707 -394 947 -456 104
-27 112 -28 391 -28 296 0 382 8 620 55 199 40 443 117 638 201 52 23 59 32
43 58 -7 11 -16 11 -57 -2 -233 -76 -495 -116 -804 -124 -241 -6 -386 3 -586
37 -312 53 -507 160 -1067 587 -332 254 -534 399 -673 484 -164 99 -163 99
-64 83 187 -30 401 -79 635 -145 150 -43 184 -54 570 -179 751 -245 1002 -286
1362 -225 349 59 685 172 1009 339 165 85 343 195 447 274 50 38 56 46 45 60
-7 10 -13 18 -14 20 -1 2 -25 -11 -54 -28 -255 -150 -676 -303 -1008 -365
-263 -49 -573 -73 -734 -55 -203 23 -417 92 -768 250 -226 101 -639 294 -636
297 1 1 60 -7 131 -17 288 -43 410 -54 620 -54 232 0 272 6 459 69 303 101
605 262 876 466 123 93 337 283 363 322 14 22 14 26 0 40 -15 14 -21 12 -67
-27 -62 -53 -246 -178 -343 -234 -445 -258 -972 -413 -1293 -382 -225 22 -377
56 -860 191 -426 120 -692 183 -898 214 -24 4 -42 9 -39 11 6 7 278 61 387 78
235 35 496 60 930 86 597 36 898 83 1122 173 157 63 428 237 638 410 123 101
401 385 499 509 99 126 251 346 251 364 0 7 -7 17 -16 22 -14 8 -32 -9 -93
-82 -269 -324 -664 -635 -1060 -835 -370 -187 -523 -218 -1031 -208 -168 4
-399 13 -515 21 -115 9 -306 19 -423 22 -117 4 -209 10 -205 14 4 4 116 35
248 70 539 140 778 228 974 357 125 83 408 368 538 543 168 225 284 424 382
652 65 151 68 164 43 177 -18 10 -23 4 -53 -52 -174 -336 -486 -704 -805 -951
-341 -265 -499 -316 -1315 -426 -426 -57 -811 -125 -934 -165 -71 -23 275 210
520 350 94 54 340 185 548 291 437 224 564 295 737 409 228 151 326 249 488
489 268 397 460 865 542 1325 26 146 25 151 -2 151 -21 0 -27 -13 -56 -112
-177 -599 -636 -1293 -1024 -1549 -152 -100 -425 -224 -753 -343 -55 -20 -192
-69 -305 -110 -112 -41 -206 -73 -208 -72 -1 2 39 34 90 71 284 207 531 429
636 570 101 137 241 446 311 688 85 292 131 590 131 852 0 115 -1 123 -21 128
-24 7 -25 4 -39 -103 -57 -437 -227 -894 -468 -1260 -101 -154 -155 -217 -256
-299 -168 -137 -312 -228 -727 -461 -393 -221 -639 -372 -799 -491 -24 -19
-40 -27 -35 -19 5 8 52 80 105 160 170 254 314 433 720 895 479 545 641 786
719 1070 130 473 155 997 70 1495 -21 127 -44 228 -52 236 -12 13 -48 -8 -43
-24 3 -9 10 -93 16 -185 29 -477 -60 -1020 -241 -1465 -118 -289 -292 -488
-889 -1017 -173 -154 -353 -316 -399 -360 -66 -62 -80 -72 -64 -45 437 741
541 967 574 1252 15 130 6 516 -15 658 -38 252 -95 478 -170 676 -85 225 -91
236 -125 215 -11 -7 -11 -16 2 -57 76 -233 116 -495 124 -804 8 -317 -22 -593
-84 -790 -54 -170 -190 -398 -410 -690 -375 -498 -457 -607 -529 -715 -44 -66
-100 -153 -124 -193 -23 -40 -46 -74 -49 -77 -21 -12 59 374 130 635 53 195
73 258 201 650 243 747 284 996 223 1357 -67 394 -208 786 -413 1148 -56 99
-181 289 -219 332 -25 29 -30 31 -46 19z"/>
</g>
</svg>
