<?xml version="1.0" standalone="no"?>
<!DOCTYPE svg PUBLIC "-//W3C//DTD SVG 20010904//EN"
 "http://www.w3.org/TR/2001/REC-SVG-20010904/DTD/svg10.dtd">
<svg version="1.0" xmlns="http://www.w3.org/2000/svg"
 width="1280.000000pt" height="1280.000000pt" viewBox="0 0 1280.000000 1280.000000"
 preserveAspectRatio="xMidYMid meet">
<metadata>
Created by potrace 1.15, written by Peter Selinger 2001-2017
</metadata>
<g transform="translate(0.000000,1280.000000) scale(0.100000,-0.100000)"
fill="#868b7f" stroke="none">
<path d="M6250 12395 c-80 -80 -149 -145 -155 -145 -6 0 -80 56 -165 125 -85
69 -160 125 -167 125 -6 0 -69 -72 -140 -159 -87 -109 -133 -158 -143 -155 -8
3 -88 53 -177 111 -90 58 -169 103 -175 100 -7 -2 -53 -67 -102 -143 -49 -77
-100 -154 -113 -171 l-24 -33 -189 95 c-141 70 -191 91 -198 82 -5 -7 -46 -84
-90 -172 -45 -88 -87 -168 -94 -177 -12 -16 -28 -11 -207 58 -107 41 -198 71
-202 67 -4 -4 -39 -91 -78 -192 -39 -102 -74 -188 -78 -192 -4 -4 -98 17 -208
47 -110 29 -201 54 -202 54 -4 0 -34 -104 -74 -252 -38 -142 -44 -158 -63
-158 -12 0 -89 11 -171 24 -256 41 -233 40 -239 8 -3 -15 -17 -101 -31 -192
-14 -91 -28 -173 -31 -183 -6 -18 -17 -19 -220 -12 l-214 8 0 -34 c0 -70 -21
-383 -25 -388 -3 -2 -97 -10 -210 -16 -113 -7 -208 -15 -211 -18 -3 -3 0 -98
6 -212 7 -113 11 -208 8 -210 -2 -3 -94 -19 -204 -36 -109 -17 -203 -35 -207
-39 -8 -7 0 -71 39 -313 9 -56 13 -102 8 -106 -5 -5 -94 -31 -198 -59 -104
-28 -192 -54 -197 -59 -5 -5 13 -92 41 -195 28 -103 50 -195 50 -205 0 -14
-35 -31 -157 -77 -87 -33 -175 -68 -195 -78 -43 -21 -43 -13 17 -168 20 -52
50 -130 66 -172 l28 -78 -177 -90 c-97 -49 -183 -94 -190 -98 -11 -7 8 -52 82
-201 l96 -191 -127 -84 c-71 -45 -147 -95 -171 -110 -24 -15 -45 -33 -48 -40
-3 -8 45 -91 106 -184 61 -94 109 -176 105 -182 -3 -5 -76 -67 -161 -136 -85
-69 -154 -129 -154 -134 0 -5 59 -82 131 -171 l130 -163 -153 -153 -153 -153
153 -153 153 -154 -130 -161 c-72 -89 -131 -165 -131 -170 0 -5 72 -67 160
-138 88 -70 160 -132 160 -137 0 -6 -47 -82 -104 -171 -58 -89 -108 -168 -111
-177 -5 -12 36 -43 169 -130 97 -63 176 -118 176 -123 0 -5 -40 -86 -90 -181
-49 -95 -90 -180 -90 -188 0 -11 61 -47 179 -106 99 -50 182 -95 186 -101 3
-5 -26 -91 -65 -192 -38 -101 -70 -190 -70 -198 0 -11 60 -38 195 -90 107 -41
195 -77 195 -80 0 -3 -22 -90 -50 -194 -27 -104 -50 -196 -50 -205 0 -12 45
-28 198 -69 108 -29 200 -56 204 -60 3 -4 -7 -88 -23 -187 -16 -99 -29 -192
-29 -207 0 -32 -14 -28 218 -64 94 -15 178 -32 186 -38 12 -9 13 -41 4 -204
-5 -107 -7 -200 -4 -207 3 -9 38 -15 113 -19 266 -16 298 -18 304 -24 4 -4 12
-97 18 -207 6 -110 15 -203 20 -208 4 -4 99 -3 210 3 112 7 205 10 207 7 3 -3
20 -96 39 -207 18 -111 36 -204 39 -207 3 -4 97 8 208 26 110 17 205 28 209
24 5 -5 32 -94 60 -198 28 -105 55 -194 59 -198 4 -5 92 14 196 42 104 28 196
51 205 51 12 0 36 -52 89 -190 41 -105 77 -193 81 -196 4 -2 95 29 201 70 176
68 194 73 206 58 7 -10 49 -89 94 -177 44 -88 85 -165 90 -172 7 -9 58 12 200
83 105 53 194 91 197 86 3 -5 55 -84 114 -175 60 -92 114 -167 120 -167 5 0
82 47 171 104 89 58 168 107 176 110 10 4 54 -43 144 -154 72 -88 135 -160
140 -160 6 0 83 59 171 130 l159 129 154 -151 154 -151 153 153 153 153 158
-128 c87 -70 165 -128 173 -129 8 -1 45 37 83 84 38 47 97 118 130 158 40 49
64 72 74 68 9 -3 86 -51 171 -107 86 -56 162 -103 169 -106 9 -3 56 60 129
171 63 97 117 176 120 176 3 0 87 -41 186 -91 100 -49 186 -88 193 -86 6 3 53
86 104 186 85 165 96 181 115 175 12 -4 102 -37 200 -75 l179 -68 18 42 c10
23 43 107 74 187 31 80 60 151 65 158 6 11 46 3 197 -37 104 -28 196 -51 205
-51 13 0 24 29 48 118 81 299 73 277 106 280 17 2 101 -9 188 -23 179 -28 206
-30 212 -12 2 6 18 97 34 201 16 104 33 192 38 196 4 4 99 3 211 -3 111 -5
205 -7 209 -4 3 4 11 100 18 214 7 115 13 209 14 209 0 1 56 4 124 8 67 4 162
9 211 13 l89 6 -7 171 c-4 94 -9 185 -12 202 -4 20 0 36 9 45 9 9 83 25 193
42 99 16 187 30 197 33 23 7 22 35 -7 213 -32 190 -34 211 -26 216 4 2 92 27
196 55 104 28 193 55 198 60 6 6 -11 86 -44 210 -29 110 -51 202 -49 204 2 2
87 35 189 75 101 39 188 75 194 81 5 5 -18 80 -63 199 -39 104 -71 193 -71
198 0 4 79 49 176 98 96 50 180 95 185 102 7 8 -18 67 -81 192 -49 99 -90 185
-90 190 0 5 74 57 164 116 91 58 169 112 174 118 7 8 -24 65 -103 187 -62 96
-111 178 -109 182 3 5 74 64 159 133 85 69 156 129 159 133 2 4 -52 77 -121
162 -68 85 -127 161 -130 168 -4 9 51 71 143 163 l149 149 -152 153 -153 152
135 169 c74 94 132 173 128 176 -5 4 -79 64 -165 135 -87 70 -158 129 -158
131 0 3 50 81 110 174 61 94 110 176 110 183 -1 7 -79 63 -175 125 l-174 114
95 190 c74 148 93 193 82 200 -7 5 -93 49 -191 99 -145 74 -177 94 -172 107
35 85 146 385 143 387 -2 1 -88 35 -193 75 -104 40 -193 76 -196 79 -4 3 17
96 46 206 30 110 50 204 46 208 -5 4 -93 31 -197 58 -104 28 -193 54 -198 60
-6 5 2 86 22 211 22 143 28 204 20 209 -6 4 -74 17 -152 29 -77 12 -167 27
-199 32 l-58 10 7 213 7 213 -64 6 c-35 3 -125 8 -200 12 -75 3 -142 10 -150
14 -10 7 -16 59 -24 209 -6 110 -14 203 -18 207 -4 4 -98 2 -209 -4 -112 -6
-206 -7 -210 -3 -4 3 -21 92 -38 196 -17 105 -33 197 -35 206 -5 14 -21 13
-153 -8 -247 -39 -267 -41 -273 -31 -4 6 -16 47 -28 91 -76 280 -84 307 -97
307 -7 0 -98 -23 -201 -50 -103 -28 -192 -49 -198 -46 -5 2 -43 90 -84 195
-41 105 -79 191 -85 191 -6 0 -94 -32 -196 -70 -101 -39 -189 -69 -196 -66 -7
3 -53 86 -103 185 -51 100 -97 181 -103 181 -6 0 -89 -40 -185 -90 -95 -49
-179 -90 -185 -90 -7 0 -64 79 -127 175 -105 162 -115 174 -134 163 -11 -6
-85 -53 -163 -104 -79 -51 -152 -98 -163 -103 -17 -10 -33 6 -143 141 -68 84
-128 159 -134 167 -9 12 -39 -8 -173 -117 -90 -73 -168 -132 -175 -132 -6 0
-76 65 -156 145 -80 80 -147 145 -150 145 -3 0 -70 -65 -150 -145z m-65 -263
c52 -44 74 -67 67 -75 -65 -86 -126 -157 -135 -157 -7 0 -47 35 -89 77 l-78
78 72 72 c40 40 76 72 79 71 4 -2 41 -31 84 -66z m593 -5 l72 -72 -83 -83 -83
-83 -67 85 c-37 46 -67 89 -67 94 0 8 144 132 153 132 2 0 35 -33 75 -73z
m592 -62 c34 -41 60 -82 58 -90 -2 -9 -39 -44 -83 -80 l-80 -64 -27 32 c-28
34 -83 121 -93 149 -5 13 13 30 77 72 45 31 84 56 85 56 1 0 29 -34 63 -75z
m-1780 12 l80 -54 -36 -59 c-47 -77 -82 -124 -96 -124 -12 0 -123 87 -152 118
-18 21 -18 22 15 64 44 58 91 108 101 108 5 0 44 -24 88 -53z m2371 -154 c27
-42 49 -79 49 -83 0 -4 -39 -33 -87 -65 -66 -44 -90 -55 -102 -48 -9 6 -36 49
-61 97 -44 86 -45 88 -25 103 35 26 158 83 167 76 6 -3 32 -39 59 -80z m-2961
37 c44 -22 80 -47 80 -55 0 -17 -75 -165 -93 -182 -10 -10 -31 0 -99 45 -48
31 -88 63 -88 71 0 29 91 161 112 161 5 0 44 -18 88 -40z m-542 -187 c71 -29
69 -16 20 -146 -17 -43 -37 -81 -45 -84 -11 -4 -172 70 -201 93 -2 1 17 43 42
92 l45 91 38 -11 c21 -6 66 -21 101 -35z m4071 -42 c43 -81 43 -84 25 -98 -25
-19 -171 -93 -183 -93 -8 0 -75 161 -83 199 -3 16 144 81 177 78 13 -1 33 -28
64 -86z m565 -317 c7 -31 7 -32 -68 -63 -42 -17 -89 -34 -105 -37 -26 -6 -30
-3 -45 37 -9 24 -22 72 -30 107 -17 74 -19 72 101 101 l78 19 31 -67 c18 -36
35 -80 38 -97z m-5199 130 c84 -24 82 -19 52 -135 -15 -56 -29 -105 -32 -107
-5 -5 -97 27 -172 59 l-42 18 11 38 c5 21 21 64 36 96 25 58 26 59 61 52 20
-3 59 -13 86 -21z m5664 -282 c11 -21 54 -183 49 -187 -5 -5 -192 -55 -205
-55 -7 0 -17 17 -22 38 -17 60 -31 176 -23 184 6 6 105 26 184 37 4 1 12 -7
17 -17z m-6161 -13 c47 -10 52 -13 52 -37 0 -31 -28 -193 -34 -199 -3 -4 -165
36 -213 52 -15 5 31 185 50 197 12 8 53 4 145 -13z m6656 -356 c20 -98 27
-166 19 -174 -15 -15 -203 -43 -215 -31 -5 5 -10 56 -11 113 l-2 104 30 6 c17
4 62 7 102 8 70 1 71 1 77 -26z m-7116 11 l31 -6 -6 -112 c-3 -61 -7 -112 -8
-113 -1 -2 -52 5 -113 14 -109 16 -112 17 -112 42 0 28 18 149 25 169 5 13
127 17 183 6z m7554 -393 c5 -4 11 -48 14 -99 l7 -91 -27 -11 c-15 -5 -68 -10
-117 -10 l-89 0 0 63 c0 34 3 86 7 115 l6 53 96 -7 c53 -3 99 -9 103 -13z
m-7979 2 c3 -5 8 -56 12 -115 l7 -108 -104 0 c-56 0 -109 4 -117 9 -16 11 -16
178 0 198 15 18 193 32 202 16z m-396 -478 c7 -28 16 -77 19 -111 l6 -61 -47
-6 c-26 -4 -76 -7 -110 -7 -74 0 -72 -2 -81 116 l-7 83 27 11 c29 10 142 29
166 26 9 -1 20 -21 27 -51z m8756 36 c26 -10 27 -13 27 -88 0 -125 1 -123 -90
-123 -43 0 -92 3 -109 6 -36 8 -37 14 -19 143 l11 84 77 -6 c42 -3 88 -11 103
-16z m305 -472 l84 -22 -7 -56 c-13 -107 -26 -151 -43 -151 -9 0 -53 7 -97 15
-44 8 -86 14 -94 15 -18 0 -10 70 19 163 17 54 25 67 38 64 9 -3 55 -15 100
-28z m-9414 -31 c32 -112 44 -163 37 -170 -8 -9 -212 -40 -219 -34 -8 8 -31
136 -32 173 0 34 -8 30 140 71 56 16 59 15 74 -40z m9712 -479 c93 -35 92 -33
65 -136 -12 -48 -26 -92 -31 -96 -8 -9 -198 38 -213 53 -5 4 8 53 30 109 l38
101 30 -6 c17 -4 53 -15 81 -25z m-9993 -83 c21 -54 35 -102 30 -106 -4 -5
-53 -20 -107 -34 -79 -21 -101 -24 -108 -14 -12 19 -36 101 -43 151 -6 38 -4
45 12 50 10 3 47 17 83 31 36 14 72 24 80 23 8 -1 31 -43 53 -101z m10252
-468 l74 -39 -15 -50 c-23 -77 -52 -139 -65 -139 -17 0 -209 71 -209 77 0 3
23 49 51 104 58 114 47 111 164 47z m-10495 -61 c22 -43 40 -85 40 -93 0 -15
-4 -17 -132 -64 l-77 -29 -37 95 c-20 52 -34 97 -31 101 3 3 43 25 89 49 65
33 86 40 95 31 7 -7 30 -47 53 -90z m10644 -478 c28 -17 66 -42 83 -56 l33
-24 -45 -89 c-25 -50 -50 -90 -55 -90 -20 0 -190 90 -190 101 0 23 103 189
117 189 3 0 29 -14 57 -31z m-10833 -71 c59 -87 61 -92 43 -105 -26 -20 -171
-93 -184 -93 -5 0 -30 40 -55 89 -37 74 -42 91 -31 101 24 19 151 100 158 100
4 0 35 -41 69 -92z m10962 -508 c81 -57 110 -88 103 -106 -13 -35 -98 -154
-109 -154 -20 0 -177 109 -177 123 0 16 118 167 131 167 6 0 29 -13 52 -30z
m-11089 -62 c52 -64 63 -84 54 -95 -16 -20 -160 -113 -174 -113 -17 0 -116
155 -109 171 8 18 136 119 152 119 6 0 41 -37 77 -82z m11196 -558 c44 -44 68
-75 64 -83 -4 -6 -34 -45 -67 -85 l-58 -72 -77 62 c-42 33 -83 67 -91 74 -12
11 -2 26 64 93 43 45 82 81 87 81 4 0 39 -32 78 -70z m-11257 -29 c37 -36 67
-69 67 -73 0 -10 -162 -138 -175 -138 -12 0 -112 119 -122 146 -4 11 16 38 62
85 78 78 64 80 168 -20z m11262 -568 c30 -37 55 -73 55 -81 0 -17 -118 -142
-134 -142 -6 0 -45 34 -86 75 l-74 74 25 27 c35 39 132 114 146 114 7 0 37
-30 68 -67z m-11309 20 c27 -20 64 -50 82 -67 l32 -30 -77 -78 c-43 -43 -81
-78 -84 -78 -11 0 -119 101 -130 122 -8 14 -5 26 13 51 42 60 92 117 104 117
6 0 33 -16 60 -37z m11254 -613 c29 -44 50 -86 47 -94 -6 -15 -136 -126 -148
-126 -9 0 -99 104 -124 144 l-19 28 35 29 c26 22 147 99 155 99 1 0 25 -36 54
-80z m-11137 -12 c31 -21 57 -42 57 -46 0 -13 -132 -172 -142 -172 -11 0 -144
105 -154 121 -3 5 20 48 51 95 l55 85 38 -22 c20 -13 63 -40 95 -61z m11031
-595 c20 -39 36 -74 36 -76 0 -10 -151 -107 -165 -107 -24 0 -134 174 -120
188 4 4 46 28 93 53 103 53 101 54 156 -58z m-10945 41 c50 -25 91 -49 91 -54
0 -18 -111 -180 -124 -180 -16 0 -125 66 -150 90 -19 19 -19 20 23 105 23 47
48 85 55 85 8 0 55 -21 105 -46z m10760 -594 c17 -44 31 -86 31 -95 0 -9 -36
-33 -89 -60 l-89 -44 -15 22 c-22 33 -87 165 -87 176 0 14 197 93 212 84 4 -2
20 -39 37 -83z m-10584 38 c44 -16 84 -33 88 -37 9 -9 -91 -214 -101 -209 -90
42 -172 91 -172 103 0 16 42 131 60 165 8 15 17 19 28 15 9 -4 53 -20 97 -37z
m10342 -568 c13 -36 22 -81 20 -100 -2 -34 -5 -36 -82 -67 -44 -18 -85 -32
-92 -33 -14 0 -94 202 -84 212 9 10 183 57 201 55 9 -1 24 -29 37 -67z
m-10139 40 c89 -21 122 -35 122 -50 0 -6 -16 -53 -36 -105 -41 -108 -29 -102
-144 -59 -95 36 -93 34 -80 85 27 104 42 149 48 149 4 0 44 -9 90 -20z m9841
-523 c14 -41 30 -167 22 -171 -3 -2 -48 -15 -99 -29 -85 -24 -93 -24 -100 -9
-15 29 -56 201 -50 207 7 7 149 32 190 34 22 1 28 -5 37 -32z m-9520 8 c46 -8
86 -17 89 -19 4 -5 -9 -65 -39 -180 l-10 -38 -42 6 c-49 8 -137 33 -153 44 -9
5 -8 32 3 105 18 113 8 107 152 82z m9185 -502 c3 -21 6 -66 6 -100 l0 -62
-37 -11 c-21 -6 -68 -13 -104 -17 l-66 -6 -11 64 c-27 161 -27 157 4 162 16 2
68 5 115 6 l86 1 7 -37z m-8759 15 c4 -3 0 -51 -9 -106 -9 -55 -16 -102 -16
-106 0 -10 -69 -6 -140 7 l-65 12 -3 50 c-2 28 -1 74 3 104 l7 53 108 -4 c60
-2 112 -6 115 -10z m369 -424 c13 -5 16 -23 16 -93 0 -134 2 -131 -91 -131
-122 0 -125 2 -132 106 -4 53 -2 93 3 98 18 18 172 32 204 20z m8002 -6 c3 -4
3 -50 -1 -102 -8 -110 -3 -106 -131 -106 -96 0 -94 -4 -94 134 l0 88 109 -4
c60 -2 113 -6 117 -10z m-491 -391 l60 -12 -2 -35 c-2 -19 -8 -65 -14 -102
l-11 -68 -58 0 c-31 0 -78 3 -104 6 l-46 7 0 82 c0 45 3 97 6 115 l7 32 51 -7
c28 -3 78 -11 111 -18z m-7057 -103 l3 -111 -97 -7 c-53 -4 -100 -4 -105 1 -8
8 -40 195 -34 201 7 8 155 30 190 29 l40 -2 3 -111z m478 -322 c18 -104 18
-120 -5 -127 -36 -11 -182 -32 -185 -26 -12 20 -47 166 -44 184 3 18 18 25
103 48 117 31 110 35 131 -79z m6088 76 l78 -21 -5 -46 c-3 -25 -14 -71 -24
-101 -20 -62 -13 -60 -147 -39 l-69 11 6 77 c3 42 11 93 17 114 13 44 0 43
144 5z m-5609 -268 c8 -13 55 -181 55 -197 0 -16 -103 -53 -157 -56 l-46 -2
-33 85 c-19 47 -33 89 -31 94 3 8 180 84 199 86 4 0 10 -5 13 -10z m5104 -31
c50 -19 81 -36 81 -45 0 -13 -58 -173 -66 -183 -3 -4 -65 10 -150 35 l-51 15
8 45 c10 54 27 117 40 151 11 29 16 29 138 -18z m-544 -240 c52 -28 95 -53 95
-55 0 -2 -19 -42 -42 -89 -30 -60 -48 -85 -61 -85 -10 0 -54 14 -97 31 -55 21
-80 36 -80 47 0 25 71 202 81 202 5 0 51 -23 104 -51z m-4015 -6 c13 -27 31
-72 41 -101 l18 -52 -22 -15 c-23 -15 -151 -65 -166 -65 -9 0 -105 179 -99
185 10 9 185 94 194 94 7 1 22 -20 34 -46z m579 -223 l52 -99 -43 -27 c-23
-15 -66 -37 -94 -50 l-52 -23 -55 83 -56 84 27 25 c27 25 151 107 164 107 3 0
29 -45 57 -100z m2856 59 c28 -17 66 -43 84 -59 l35 -28 -53 -81 c-30 -44 -59
-81 -67 -81 -11 0 -161 75 -173 86 -3 3 17 50 44 105 55 110 48 107 130 58z
m-2309 -137 c23 -31 50 -74 60 -96 l19 -38 -28 -22 c-15 -12 -52 -37 -82 -55
-55 -33 -56 -33 -76 -15 -32 28 -110 136 -107 146 3 9 160 137 168 137 3 0 24
-25 46 -57z m1787 -27 c60 -49 67 -59 55 -73 -10 -14 -84 -105 -109 -136 -9
-10 -98 40 -148 82 l-35 29 58 91 58 92 26 -14 c15 -8 58 -40 95 -71z m-1178
-68 c35 -44 62 -84 59 -88 -3 -5 -38 -36 -80 -69 l-74 -62 -70 68 c-39 37 -70
74 -70 81 0 20 148 165 161 157 6 -3 39 -42 74 -87z m588 -139 c-83 -83 -78
-83 -179 6 l-59 53 30 39 c16 21 50 61 74 87 l45 48 80 -80 81 -81 -72 -72z"/>
</g>
</svg>
