<?xml version="1.0" standalone="no"?>
<!DOCTYPE svg PUBLIC "-//W3C//DTD SVG 20010904//EN"
 "http://www.w3.org/TR/2001/REC-SVG-20010904/DTD/svg10.dtd">
<svg version="1.0" xmlns="http://www.w3.org/2000/svg"
 width="1280.000000pt" height="1280.000000pt" viewBox="0 0 1280.000000 1280.000000"
 preserveAspectRatio="xMidYMid meet">
<metadata>
Created by potrace 1.15, written by Peter Selinger 2001-2017
</metadata>
<g transform="translate(0.000000,1280.000000) scale(0.100000,-0.100000)"
fill="#9b9b87" stroke="none">
<path d="M3100 12204 c-243 -20 -473 -65 -670 -133 -291 -99 -465 -179 -675
-311 -225 -142 -521 -408 -699 -630 -85 -106 -176 -232 -176 -244 0 -3 -28
-49 -63 -103 -60 -93 -174 -328 -231 -476 -62 -160 -138 -472 -160 -657 -14
-112 -18 -464 -7 -600 28 -351 113 -663 279 -1023 58 -125 232 -400 335 -531
154 -193 403 -431 617 -587 38 -27 187 -120 260 -161 291 -166 623 -277 976
-327 266 -38 493 -42 1949 -39 l1390 3 3 1565 c2 1047 -1 1590 -8 1640 -45
324 -64 411 -151 672 -52 157 -168 408 -246 530 -35 55 -113 169 -173 253
-159 220 -420 472 -687 662 -125 89 -425 247 -573 303 -47 17 -114 43 -148 56
-96 37 -339 93 -502 115 -138 19 -521 33 -640 23z"/>
<path d="M9090 12204 c-19 -2 -82 -9 -140 -14 -58 -6 -132 -16 -165 -21 -102
-18 -344 -79 -408 -104 -34 -13 -100 -38 -147 -55 -235 -88 -530 -261 -760
-444 -139 -111 -400 -382 -496 -514 -239 -329 -396 -644 -475 -956 -11 -44
-29 -108 -39 -141 -11 -33 -26 -112 -35 -175 -8 -63 -19 -146 -25 -185 -7 -46
-9 -615 -8 -1640 l3 -1570 1385 -3 c1348 -3 1696 2 1869 29 35 5 98 14 140 20
201 25 567 141 771 243 344 173 582 346 835 607 172 178 264 301 434 580 143
236 297 664 346 964 80 486 22 1061 -150 1500 -114 293 -309 627 -493 845
-166 198 -464 462 -662 586 -106 67 -326 179 -450 230 -382 156 -657 212
-1070 219 -124 2 -241 1 -260 -1z"/>
<path d="M3138 6225 c-102 -7 -190 -15 -195 -18 -4 -3 -52 -10 -105 -17 -312
-37 -751 -204 -1085 -412 -122 -75 -325 -240 -467 -378 -566 -551 -876 -1287
-876 -2080 0 -307 34 -536 129 -867 75 -260 278 -654 470 -909 149 -199 480
-508 696 -652 333 -220 754 -385 1135 -446 238 -38 614 -45 865 -16 187 22
448 85 575 138 14 6 63 25 110 42 164 61 445 213 600 324 150 107 231 177 401
346 172 171 268 292 424 535 154 240 325 688 371 970 40 249 39 204 39 1855
l0 1595 -1450 1 c-1078 1 -1498 -2 -1637 -11z"/>
<path d="M6397 6233 c-10 -9 -7 -3148 2 -3208 5 -27 16 -106 25 -175 9 -69 26
-153 37 -188 10 -34 26 -91 34 -126 53 -228 211 -580 355 -792 241 -357 393
-520 697 -751 197 -150 498 -320 680 -384 48 -17 115 -42 147 -56 69 -29 255
-74 446 -108 102 -18 189 -26 355 -31 474 -14 790 40 1213 207 383 152 664
340 973 648 487 488 785 1126 839 1795 38 477 -28 925 -198 1341 -52 129 -141
309 -187 380 -18 28 -66 102 -107 165 -107 166 -215 296 -379 455 -216 209
-393 339 -664 486 -376 205 -775 311 -1272 339 -191 11 -2986 14 -2996 3z"/>
</g>
</svg>
